# xmcd
# 
# Track frame offsets:
#     150
#     12750
#     30215
#     42864
#     56000
#     70752
#     83801
#     98420
#     113697
#     128480
# 
# Disc length: 1878
# 
# Revision: 0
# Processed by: cddbd v1.5.2PL0 Copyright (c) Steve Scherf et al.
# Submitted via: BonkEnc v1.0.6
# 
DISCID=6707540a
DTITLE=Various Artist - Best Of Country Disc 3
DYEAR=2006
DGENRE=Country
TTITLE0=Freddy Fender  - Wasted Days And Wasted Nights
TTITLE1=Doug Stone - Too busy Being In Love
TTITLE2=Holly Dunn - You Really had Me Going
TTITLE3=Jack Greene - Statue of a Fool
TTITLE4=Mickey Gilley - Stand By Me
TTITLE5=Exile - It'll Be Me
TTITLE6=Janie Fricke - Let's Stop Talking About It
TTITLE7=T.G. Sheppard - Slow Burn
TTITLE8=Janie Pruitt - Satin Sheets
TTITLE9=Porter Wagoner - Satisfied Mind
EXTD=Disc # 3
EXTT0=
EXTT1=
EXTT2=
EXTT3=
EXTT4=
EXTT5=
EXTT6=
EXTT7=
EXTT8=
EXTT9=
PLAYORDER=
